<svg xmlns="http://www.w3.org/2000/svg" viewBox="0 0 64 64">
  <defs>
    <linearGradient id="grad" x1="0%" y1="0%" x2="100%" y2="100%">
      <stop offset="0%" stop-color="#5C5CFF" />
      <stop offset="100%" stop-color="#2ED7C9" />
    </linearGradient>
  </defs>
  <rect width="64" height="64" rx="14" fill="#070A1B" />
  <rect x="6" y="6" width="52" height="52" rx="12" fill="url(#grad)" opacity="0.85" />
  <path d="M48 35c0 7-6 13-16 13s-16-6-16-13c0-4 2-8 6-10l1 4c-2 1-3 3-3 6 0 4 4 8 12 8s12-4 12-8c0-3-1-5-3-6l1-4c4 2 6 6 6 10z" fill="#fff" opacity="0.85" />
  <path d="M32 16c5 0 9 4 9 9s-4 9-9 9-9-4-9-9 4-9 9-9zm0 4a5 5 0 100 10 5 5 0 000-10z" fill="#fff" />
</svg>
